{
  "accessors": [
    {
      "bufferView": 2,
      "componentType": 5126,
      "count": 493,
      "max": [
        0.8172889947891235,
        0.8019285798072815,
        0.7850414514541626
      ],
      "min": [
        -0.7739285826683044,
        -0.975730836391449,
        -0.7850414514541626
      ],
      "type": "VEC3"
    },
    {
      "bufferView": 2,
      "byteOffset": 5916,
      "componentType": 5126,
      "count": 493,
      "max": [
        0.9944804310798645,
        0.9966694712638855,
        1.0
      ],
      "min": [
        -0.9992307424545288,
        -0.9763699173927307,
        -1.0
      ],
      "type": "VEC3"
    },
    {
      "bufferView": 1,
      "componentType": 5126,
      "count": 493,
      "max": [
        0.8750002384185791,
        1.000000238418579
      ],
      "min": [
        0.5000000596046448,
        0.0
      ],
      "type": "VEC2"
    },
    {
      "bufferView": 0,
      "componentType": 5125,
      "count": 1920,
      "type": "SCALAR"
    },
    {
      "bufferView": 2,
      "byteOffset": 11832,
      "componentType": 5126,
      "count": 923,
      "max": [
        0.5930318832397461,
        -0.07617370039224625,
        0.6659783720970154
      ],
      "min": [
        -0.5180798768997192,
        -0.6108736991882324,
        -0.6659366488456726
      ],
      "type": "VEC3"
    },
    {
      "bufferView": 2,
      "byteOffset": 22908,
      "componentType": 5126,
      "count": 923,
      "max": [
        0.9940133094787598,
        0.9942032694816589,
        0.9998886585235596
      ],
      "min": [
        -0.9940133094787598,
        -0.9942032694816589,
        -0.9998886585235596
      ],
      "type": "VEC3"
    },
    {
      "bufferView": 1,
      "byteOffset": 3944,
      "componentType": 5126,
      "count": 923,
      "max": [
        1.0000001192092896,
        1.0000001192092896
      ],
      "min": [
        0.0,
        0.0
      ],
      "type": "VEC2"
    },
    {
      "bufferView": 0,
      "byteOffset": 7680,
      "componentType": 5125,
      "count": 4608,
      "type": "SCALAR"
    }
  ],
  "asset": {
    "extras": {
      "author": "PatelDev (https://sketchfab.com/PatelDev)",
      "license": "CC-BY-4.0 (http://creativecommons.org/licenses/by/4.0/)",
      "source": "https://sketchfab.com/3d-models/beret-hat-c48b9fb0530f4e11b0bb0352752afb46",
      "title": "Beret Hat"
    },
    "generator": "Sketchfab-12.68.0",
    "version": "2.0"
  },
  "bufferViews": [
    {
      "buffer": 0,
      "byteLength": 26112,
      "name": "floatBufferViews",
      "target": 34963
    },
    {
      "buffer": 0,
      "byteLength": 11328,
      "byteOffset": 26112,
      "byteStride": 8,
      "name": "floatBufferViews",
      "target": 34962
    },
    {
      "buffer": 0,
      "byteLength": 33984,
      "byteOffset": 37440,
      "byteStride": 12,
      "name": "floatBufferViews",
      "target": 34962
    }
  ],
  "buffers": [
    {
      "byteLength": 71424,
      "uri": "scene.bin"
    }
  ],
  "materials": [
    {
      "doubleSided": true,
      "name": "Material.002",
      "pbrMetallicRoughness": {
        "baseColorFactor": [
          0.8,
          0.036512,
          0.00799999,
          1.0
        ],
        "metallicFactor": 0.0
      }
    },
    {
      "doubleSided": true,
      "name": "Material.001",
      "pbrMetallicRoughness": {
        "baseColorFactor": [
          0.0,
          0.0,
          0.0,
          1.0
        ],
        "metallicFactor": 0.0,
        "roughnessFactor": 0.5
      }
    }
  ],
  "meshes": [
    {
      "name": "Object_0",
      "primitives": [
        {
          "attributes": {
            "NORMAL": 1,
            "POSITION": 0,
            "TEXCOORD_0": 2
          },
          "indices": 3,
          "material": 0,
          "mode": 4
        }
      ]
    },
    {
      "name": "Object_1",
      "primitives": [
        {
          "attributes": {
            "NORMAL": 5,
            "POSITION": 4,
            "TEXCOORD_0": 6
          },
          "indices": 7,
          "material": 1,
          "mode": 4
        }
      ]
    }
  ],
  "nodes": [
    {
      "children": [
        1
      ],
      "matrix": [
        1.0,
        0.0,
        0.0,
        0.0,
        0.0,
        2.220446049250313e-16,
        -1.0,
        0.0,
        0.0,
        1.0,
        2.220446049250313e-16,
        0.0,
        0.0,
        0.0,
        0.0,
        1.0
      ],
      "name": "Sketchfab_model"
    },
    {
      "children": [
        2
      ],
      "name": "root"
    },
    {
      "children": [
        3,
        5
      ],
      "matrix": [
        1.0,
        0.0,
        0.0,
        0.0,
        0.0,
        2.220446049250313e-16,
        1.0,
        0.0,
        0.0,
        -1.0,
        2.220446049250313e-16,
        0.0,
        0.0,
        0.0,
        0.0,
        1.0
      ],
      "name": "GLTF_SceneRootNode"
    },
    {
      "children": [
        4
      ],
      "matrix": [
        0.9097475468429435,
        0.41516189735240205,
        0.0,
        0.0,
        -0.2492235982102678,
        0.5461256404623922,
        0.0,
        0.0,
        0.0,
        0.0,
        1.0,
        0.0,
        0.0,
        0.0,
        0.0,
        1.0
      ],
      "name": "Cube_2"
    },
    {
      "mesh": 0,
      "name": "Object_4"
    },
    {
      "children": [
        6
      ],
      "matrix": [
        0.9097475468429435,
        0.41516189735240205,
        0.0,
        0.0,
        -0.41516189735240205,
        0.9097475468429435,
        0.0,
        0.0,
        0.0,
        0.0,
        1.0,
        0.0,
        0.0,
        0.0,
        0.0,
        1.0
      ],
      "name": "Cube.002_4"
    },
    {
      "mesh": 1,
      "name": "Object_6"
    }
  ],
  "scene": 0,
  "scenes": [
    {
      "name": "Sketchfab_Scene",
      "nodes": [
        0
      ]
    }
  ]
}
