{
  "accessors": [
    {
      "bufferView": 2,
      "componentType": 5126,
      "count": 455,
      "max": [
        0.12744101881980896,
        0.22188279032707214,
        0.12744103372097015
      ],
      "min": [
        -0.12744101881980896,
        0.003142556408420205,
        -0.12744101881980896
      ],
      "type": "VEC3"
    },
    {
      "bufferView": 2,
      "byteOffset": 5460,
      "componentType": 5126,
      "count": 455,
      "max": [
        0.9969581961631775,
        -0.07338197529315948,
        0.9969578385353088
      ],
      "min": [
        -0.9969580173492432,
        -0.21667809784412384,
        -0.9969581365585327
      ],
      "type": "VEC3"
    },
    {
      "bufferView": 1,
      "componentType": 5126,
      "count": 455,
      "max": [
        1.2777553796768188,
        0.9941424131393433
      ],
      "min": [
        -0.1343945413827896,
        0.0019603967666625977
      ],
      "type": "VEC2"
    },
    {
      "bufferView": 0,
      "componentType": 5125,
      "count": 2304,
      "type": "SCALAR"
    },
    {
      "bufferView": 2,
      "byteOffset": 10920,
      "componentType": 5126,
      "count": 3178,
      "max": [
        0.13396750390529633,
        0.22922083735466003,
        0.13396750390529633
      ],
      "min": [
        -0.13396748900413513,
        -0.0009101292816922069,
        -0.13396750390529633
      ],
      "type": "VEC3"
    },
    {
      "bufferView": 2,
      "byteOffset": 49056,
      "componentType": 5126,
      "count": 3178,
      "max": [
        0.9996535778045654,
        1.0,
        0.9996535778045654
      ],
      "min": [
        -0.9996535778045654,
        -1.0,
        -0.9996535778045654
      ],
      "type": "VEC3"
    },
    {
      "bufferView": 1,
      "byteOffset": 3640,
      "componentType": 5126,
      "count": 3178,
      "max": [
        1.6732467412948608,
        0.9974620342254639
      ],
      "min": [
        -0.25114887952804565,
        0.00011650480155367404
      ],
      "type": "VEC2"
    },
    {
      "bufferView": 0,
      "byteOffset": 9216,
      "componentType": 5125,
      "count": 11904,
      "type": "SCALAR"
    },
    {
      "bufferView": 2,
      "byteOffset": 87192,
      "componentType": 5126,
      "count": 455,
      "max": [
        0.12744101881980896,
        0.22188279032707214,
        0.12744103372097015
      ],
      "min": [
        -0.12744101881980896,
        0.003142556408420205,
        -0.12744101881980896
      ],
      "type": "VEC3"
    },
    {
      "bufferView": 2,
      "byteOffset": 92652,
      "componentType": 5126,
      "count": 455,
      "max": [
        0.9969581961631775,
        -0.07338197529315948,
        0.9969578385353088
      ],
      "min": [
        -0.9969580173492432,
        -0.21667809784412384,
        -0.9969581365585327
      ],
      "type": "VEC3"
    },
    {
      "bufferView": 1,
      "byteOffset": 29064,
      "componentType": 5126,
      "count": 455,
      "max": [
        1.2777553796768188,
        0.9941424131393433
      ],
      "min": [
        -0.1343945413827896,
        0.0019603967666625977
      ],
      "type": "VEC2"
    },
    {
      "bufferView": 0,
      "byteOffset": 56832,
      "componentType": 5125,
      "count": 2304,
      "type": "SCALAR"
    },
    {
      "bufferView": 2,
      "byteOffset": 98112,
      "componentType": 5126,
      "count": 3178,
      "max": [
        0.13396750390529633,
        0.22922083735466003,
        0.13396750390529633
      ],
      "min": [
        -0.13396748900413513,
        -0.0009101292816922069,
        -0.13396750390529633
      ],
      "type": "VEC3"
    },
    {
      "bufferView": 2,
      "byteOffset": 136248,
      "componentType": 5126,
      "count": 3178,
      "max": [
        0.9996535778045654,
        1.0,
        0.9996535778045654
      ],
      "min": [
        -0.9996535778045654,
        -1.0,
        -0.9996535778045654
      ],
      "type": "VEC3"
    },
    {
      "bufferView": 1,
      "byteOffset": 32704,
      "componentType": 5126,
      "count": 3178,
      "max": [
        1.6732467412948608,
        0.9974620342254639
      ],
      "min": [
        -0.25114887952804565,
        0.00011650480155367404
      ],
      "type": "VEC2"
    },
    {
      "bufferView": 0,
      "byteOffset": 66048,
      "componentType": 5125,
      "count": 11904,
      "type": "SCALAR"
    },
    {
      "bufferView": 2,
      "byteOffset": 174384,
      "componentType": 5126,
      "count": 3943,
      "max": [
        0.12830595672130585,
        0.29110366106033325,
        0.12504906952381134
      ],
      "min": [
        -0.12793008983135223,
        0.19458678364753723,
        -0.12295476347208023
      ],
      "type": "VEC3"
    },
    {
      "bufferView": 2,
      "byteOffset": 221700,
      "componentType": 5126,
      "count": 3943,
      "max": [
        0.9990635514259338,
        0.9999884366989136,
        0.9992978572845459
      ],
      "min": [
        -0.9982496500015259,
        -0.9995474219322205,
        -0.9995317459106445
      ],
      "type": "VEC3"
    },
    {
      "bufferView": 1,
      "byteOffset": 58128,
      "componentType": 5126,
      "count": 3943,
      "max": [
        0.7665359377861023,
        0.9163239598274231
      ],
      "min": [
        0.24234703183174133,
        0.0882595106959343
      ],
      "type": "VEC2"
    },
    {
      "bufferView": 0,
      "byteOffset": 113664,
      "componentType": 5125,
      "count": 22185,
      "type": "SCALAR"
    },
    {
      "bufferView": 2,
      "byteOffset": 269016,
      "componentType": 5126,
      "count": 2924,
      "max": [
        0.7333428263664246,
        0.1200014054775238,
        0.7309942841529846
      ],
      "min": [
        -0.713062047958374,
        -0.04187222197651863,
        -0.7174034714698792
      ],
      "type": "VEC3"
    },
    {
      "bufferView": 2,
      "byteOffset": 304104,
      "componentType": 5126,
      "count": 2924,
      "max": [
        0.9864518046379089,
        0.9999736547470093,
        0.9845300912857056
      ],
      "min": [
        -0.9529626369476318,
        -0.61089026927948,
        -0.9756661653518677
      ],
      "type": "VEC3"
    },
    {
      "bufferView": 1,
      "byteOffset": 89672,
      "componentType": 5126,
      "count": 2924,
      "max": [
        0.6845824718475342,
        0.6994814872741699
      ],
      "min": [
        0.324518620967865,
        0.3394310474395752
      ],
      "type": "VEC2"
    },
    {
      "bufferView": 0,
      "byteOffset": 202404,
      "componentType": 5125,
      "count": 16329,
      "type": "SCALAR"
    },
    {
      "bufferView": 2,
      "byteOffset": 339192,
      "componentType": 5126,
      "count": 7991,
      "max": [
        0.7810357213020325,
        0.4937548041343689,
        0.78125
      ],
      "min": [
        -0.8337277770042419,
        -0.08341176807880402,
        -0.8473684787750244
      ],
      "type": "VEC3"
    },
    {
      "bufferView": 2,
      "byteOffset": 435084,
      "componentType": 5126,
      "count": 7991,
      "max": [
        0.9999407529830933,
        0.9997979402542114,
        0.999755322933197
      ],
      "min": [
        -0.9998372793197632,
        -0.999754786491394,
        -0.9995425343513489
      ],
      "type": "VEC3"
    },
    {
      "bufferView": 1,
      "byteOffset": 113064,
      "componentType": 5126,
      "count": 7991,
      "max": [
        0.7816483378410339,
        0.9648262858390808
      ],
      "min": [
        0.18218354880809784,
        0.038206543773412704
      ],
      "type": "VEC2"
    },
    {
      "bufferView": 0,
      "byteOffset": 267720,
      "componentType": 5125,
      "count": 46734,
      "type": "SCALAR"
    }
  ],
  "asset": {
    "extras": {
      "author": "Grapxly (https://sketchfab.com/grapxly)",
      "license": "CC-BY-4.0 (http://creativecommons.org/licenses/by/4.0/)",
      "source": "https://sketchfab.com/3d-models/pop-corn-bucket-or-bundle-dcd990eb8d77476e966f4483e260c7f6",
      "title": "Pop corn bucket or bundle"
    },
    "generator": "Sketchfab-15.19.0",
    "version": "2.0"
  },
  "bufferViews": [
    {
      "buffer": 0,
      "byteLength": 454656,
      "name": "floatBufferViews",
      "target": 34963
    },
    {
      "buffer": 0,
      "byteLength": 176992,
      "byteOffset": 454656,
      "byteStride": 8,
      "name": "floatBufferViews",
      "target": 34962
    },
    {
      "buffer": 0,
      "byteLength": 530976,
      "byteOffset": 631648,
      "byteStride": 12,
      "name": "floatBufferViews",
      "target": 34962
    }
  ],
  "buffers": [
    {
      "byteLength": 1162624,
      "uri": "scene.bin"
    }
  ],
  "images": [
    {
      "uri": "textures/Bucket_baseColor.jpeg"
    },
    {
      "uri": "textures/corn_baseColor.jpeg"
    }
  ],
  "materials": [
    {
      "doubleSided": true,
      "name": "Bucket",
      "pbrMetallicRoughness": {
        "baseColorTexture": {
          "index": 0
        },
        "metallicFactor": 0.0,
        "roughnessFactor": 0.822727
      }
    },
    {
      "doubleSided": true,
      "name": "white_walter",
      "pbrMetallicRoughness": {
        "baseColorFactor": [
          0.8,
          0.8,
          0.8,
          1.0
        ],
        "metallicFactor": 0.0,
        "roughnessFactor": 0.5
      }
    },
    {
      "doubleSided": true,
      "name": "corn",
      "pbrMetallicRoughness": {
        "baseColorTexture": {
          "index": 1
        },
        "metallicFactor": 0.0,
        "roughnessFactor": 0.863636
      }
    }
  ],
  "meshes": [
    {
      "name": "Object_0",
      "primitives": [
        {
          "attributes": {
            "NORMAL": 1,
            "POSITION": 0,
            "TEXCOORD_0": 2
          },
          "indices": 3,
          "material": 0,
          "mode": 4
        }
      ]
    },
    {
      "name": "Object_1",
      "primitives": [
        {
          "attributes": {
            "NORMAL": 5,
            "POSITION": 4,
            "TEXCOORD_0": 6
          },
          "indices": 7,
          "material": 1,
          "mode": 4
        }
      ]
    },
    {
      "name": "Object_2",
      "primitives": [
        {
          "attributes": {
            "NORMAL": 9,
            "POSITION": 8,
            "TEXCOORD_0": 10
          },
          "indices": 11,
          "material": 0,
          "mode": 4
        }
      ]
    },
    {
      "name": "Object_3",
      "primitives": [
        {
          "attributes": {
            "NORMAL": 13,
            "POSITION": 12,
            "TEXCOORD_0": 14
          },
          "indices": 15,
          "material": 1,
          "mode": 4
        }
      ]
    },
    {
      "name": "Object_4",
      "primitives": [
        {
          "attributes": {
            "NORMAL": 17,
            "POSITION": 16,
            "TEXCOORD_0": 18
          },
          "indices": 19,
          "material": 2,
          "mode": 4
        }
      ]
    },
    {
      "name": "Object_5",
      "primitives": [
        {
          "attributes": {
            "NORMAL": 21,
            "POSITION": 20,
            "TEXCOORD_0": 22
          },
          "indices": 23,
          "material": 2,
          "mode": 4
        }
      ]
    },
    {
      "name": "Object_6",
      "primitives": [
        {
          "attributes": {
            "NORMAL": 25,
            "POSITION": 24,
            "TEXCOORD_0": 26
          },
          "indices": 27,
          "material": 2,
          "mode": 4
        }
      ]
    }
  ],
  "nodes": [
    {
      "children": [
        1
      ],
      "matrix": [
        1.0,
        0.0,
        0.0,
        0.0,
        0.0,
        2.220446049250313e-16,
        -1.0,
        0.0,
        0.0,
        1.0,
        2.220446049250313e-16,
        0.0,
        0.0,
        0.0,
        0.0,
        1.0
      ],
      "name": "Sketchfab_model"
    },
    {
      "children": [
        2
      ],
      "name": "root"
    },
    {
      "children": [
        3
      ],
      "matrix": [
        1.0,
        0.0,
        0.0,
        0.0,
        0.0,
        2.220446049250313e-16,
        1.0,
        0.0,
        0.0,
        -1.0,
        2.220446049250313e-16,
        0.0,
        0.0,
        0.0,
        0.0,
        1.0
      ],
      "name": "GLTF_SceneRootNode"
    },
    {
      "children": [
        4,
        7,
        10,
        12,
        14
      ],
      "name": "Popcorn Buckets_5"
    },
    {
      "children": [
        5,
        6
      ],
      "matrix": [
        -0.9965883981991492,
        0.0,
        0.08253220325941951,
        0.0,
        0.0,
        1.0,
        0.0,
        0.0,
        -0.08253220325941951,
        -0.0,
        -0.9965883981991492,
        0.0,
        0.3227628171443939,
        0.0,
        0.0,
        1.0
      ],
      "name": "Bucket.001_0"
    },
    {
      "mesh": 0,
      "name": "Object_5"
    },
    {
      "mesh": 1,
      "name": "Object_6"
    },
    {
      "children": [
        8,
        9
      ],
      "matrix": [
        -0.25208861615838063,
        0.0,
        -0.9677041539661554,
        0.0,
        0.0,
        1.0,
        0.0,
        0.0,
        0.9677041539661554,
        0.0,
        -0.25208861615838063,
        0.0,
        -0.0014033913612365723,
        0.0,
        0.0,
        1.0
      ],
      "name": "Bucket.002_1"
    },
    {
      "mesh": 2,
      "name": "Object_8"
    },
    {
      "mesh": 3,
      "name": "Object_9"
    },
    {
      "children": [
        11
      ],
      "matrix": [
        1.0,
        0.0,
        0.0,
        0.0,
        0.0,
        1.0,
        0.0,
        0.0,
        0.0,
        0.0,
        1.0,
        0.0,
        0.0,
        -0.005624331533908844,
        0.0,
        1.0
      ],
      "name": "Popcorn_2"
    },
    {
      "mesh": 4,
      "name": "Object_11"
    },
    {
      "children": [
        13
      ],
      "matrix": [
        0.1741199493408203,
        0.0,
        0.0,
        0.0,
        0.0,
        0.1741199493408203,
        0.0,
        0.0,
        0.0,
        0.0,
        0.1741199493408203,
        0.0,
        0.32211530208587646,
        0.21755270659923553,
        -0.0003002040321007371,
        1.0
      ],
      "name": "Popcorn.001_3"
    },
    {
      "mesh": 5,
      "name": "Object_13"
    },
    {
      "children": [
        15
      ],
      "matrix": [
        0.15201611816883087,
        0.0,
        0.0,
        0.0,
        0.0,
        0.15201611816883087,
        0.0,
        0.0,
        0.0,
        0.0,
        0.15201611816883087,
        0.0,
        0.3255690932273865,
        0.2100042998790741,
        0.001905962941236794,
        1.0
      ],
      "name": "Popcorn.002_4"
    },
    {
      "mesh": 6,
      "name": "Object_15"
    }
  ],
  "samplers": [
    {
      "magFilter": 9729,
      "minFilter": 9987,
      "wrapS": 10497,
      "wrapT": 10497
    }
  ],
  "scene": 0,
  "scenes": [
    {
      "name": "Sketchfab_Scene",
      "nodes": [
        0
      ]
    }
  ],
  "textures": [
    {
      "sampler": 0,
      "source": 0
    },
    {
      "sampler": 0,
      "source": 1
    }
  ]
}
