{
  "accessors": [
    {
      "bufferView": 2,
      "componentType": 5126,
      "count": 6226,
      "max": [
        0.0677475556731224,
        0.04309532791376114,
        0.07040756940841675
      ],
      "min": [
        -0.07486914098262787,
        0.0011053845519199967,
        -0.0711938738822937
      ],
      "type": "VEC3"
    },
    {
      "bufferView": 2,
      "byteOffset": 74712,
      "componentType": 5126,
      "count": 6226,
      "max": [
        0.9999615550041199,
        1.0,
        0.9999091625213623
      ],
      "min": [
        -0.9998834133148193,
        -1.0,
        -0.9998725652694702
      ],
      "type": "VEC3"
    },
    {
      "bufferView": 1,
      "componentType": 5126,
      "count": 6226,
      "max": [
        0.8301401138305664,
        0.994976818561554
      ],
      "min": [
        0.004794526845216751,
        0.016056299209594727
      ],
      "type": "VEC2"
    },
    {
      "bufferView": 1,
      "byteOffset": 49808,
      "componentType": 5126,
      "count": 6226,
      "max": [
        0.8301401138305664,
        0.994976818561554
      ],
      "min": [
        0.004794526845216751,
        0.016056299209594727
      ],
      "type": "VEC2"
    },
    {
      "bufferView": 1,
      "byteOffset": 99616,
      "componentType": 5126,
      "count": 6226,
      "max": [
        0.8301401138305664,
        0.994976818561554
      ],
      "min": [
        0.004794526845216751,
        0.016056299209594727
      ],
      "type": "VEC2"
    },
    {
      "bufferView": 0,
      "componentType": 5125,
      "count": 31593,
      "type": "SCALAR"
    },
    {
      "bufferView": 2,
      "byteOffset": 149424,
      "componentType": 5126,
      "count": 233,
      "max": [
        0.08207887411117554,
        0.007366088684648275,
        0.07799626141786575
      ],
      "min": [
        -0.08097489923238754,
        0.0004811598628293723,
        -0.08505751192569733
      ],
      "type": "VEC3"
    },
    {
      "bufferView": 2,
      "byteOffset": 152220,
      "componentType": 5126,
      "count": 233,
      "max": [
        0.9490563869476318,
        1.0,
        0.949060320854187
      ],
      "min": [
        -0.9490564465522766,
        -1.0,
        -0.9490534067153931
      ],
      "type": "VEC3"
    },
    {
      "bufferView": 1,
      "byteOffset": 149424,
      "componentType": 5126,
      "count": 233,
      "max": [
        0.5282167196273804,
        0.21458077430725098
      ],
      "min": [
        0.01013185828924179,
        0.008565127849578857
      ],
      "type": "VEC2"
    },
    {
      "bufferView": 0,
      "byteOffset": 126372,
      "componentType": 5125,
      "count": 660,
      "type": "SCALAR"
    },
    {
      "bufferView": 2,
      "byteOffset": 155016,
      "componentType": 5126,
      "count": 459,
      "max": [
        0.06359245628118515,
        0.027974147349596024,
        0.07194536179304123
      ],
      "min": [
        -0.04594274237751961,
        0.007381719537079334,
        -0.07030314952135086
      ],
      "type": "VEC3"
    },
    {
      "bufferView": 2,
      "byteOffset": 160524,
      "componentType": 5126,
      "count": 459,
      "max": [
        0.9680240154266357,
        0.9900987148284912,
        0.9914907217025757
      ],
      "min": [
        -0.9836739301681519,
        -0.9897174835205078,
        -0.974174976348877
      ],
      "type": "VEC3"
    },
    {
      "bufferView": 1,
      "byteOffset": 151288,
      "componentType": 5126,
      "count": 459,
      "max": [
        0.7702164649963379,
        0.17689073085784912
      ],
      "min": [
        0.5351312160491943,
        0.0042958855628967285
      ],
      "type": "VEC2"
    },
    {
      "bufferView": 0,
      "byteOffset": 129012,
      "componentType": 5125,
      "count": 2022,
      "type": "SCALAR"
    },
    {
      "bufferView": 2,
      "byteOffset": 166032,
      "componentType": 5126,
      "count": 130,
      "max": [
        0.059233345091342926,
        0.027278367429971695,
        0.03763461485505104
      ],
      "min": [
        -0.04432051628828049,
        0.009740880690515041,
        -0.05236414819955826
      ],
      "type": "VEC3"
    },
    {
      "bufferView": 2,
      "byteOffset": 167592,
      "componentType": 5126,
      "count": 130,
      "max": [
        0.9456688165664673,
        0.978421688079834,
        0.9497573375701904
      ],
      "min": [
        -0.9870019555091858,
        -0.9784046411514282,
        -0.9795428514480591
      ],
      "type": "VEC3"
    },
    {
      "bufferView": 1,
      "byteOffset": 154960,
      "componentType": 5126,
      "count": 130,
      "max": [
        0.9942631125450134,
        0.3996168375015259
      ],
      "min": [
        0.7719147205352783,
        -0.0005831718444824219
      ],
      "type": "VEC2"
    },
    {
      "bufferView": 0,
      "byteOffset": 137100,
      "componentType": 5125,
      "count": 480,
      "type": "SCALAR"
    },
    {
      "bufferView": 2,
      "byteOffset": 169152,
      "componentType": 5126,
      "count": 168,
      "max": [
        0.06170649826526642,
        0.0327184684574604,
        0.051348935812711716
      ],
      "min": [
        -0.0546012707054615,
        0.003833914641290903,
        -0.04614894837141037
      ],
      "type": "VEC3"
    },
    {
      "bufferView": 2,
      "byteOffset": 171168,
      "componentType": 5126,
      "count": 168,
      "max": [
        0.9999980330467224,
        0.9874231815338135,
        0.9999997019767761
      ],
      "min": [
        -1.0,
        -1.0,
        -0.9999973177909851
      ],
      "type": "VEC3"
    },
    {
      "bufferView": 1,
      "byteOffset": 156000,
      "componentType": 5126,
      "count": 168,
      "max": [
        1.0002448558807373,
        0.9803398251533508
      ],
      "min": [
        0.8265876173973083,
        0.504260241985321
      ],
      "type": "VEC2"
    },
    {
      "bufferView": 0,
      "byteOffset": 139020,
      "componentType": 5125,
      "count": 252,
      "type": "SCALAR"
    },
    {
      "bufferView": 2,
      "byteOffset": 173184,
      "componentType": 5126,
      "count": 250,
      "max": [
        0.03884602338075638,
        0.020587213337421417,
        0.04140657186508179
      ],
      "min": [
        -0.04478331282734871,
        0.007909721694886684,
        -0.04370570555329323
      ],
      "type": "VEC3"
    },
    {
      "bufferView": 2,
      "byteOffset": 176184,
      "componentType": 5126,
      "count": 250,
      "max": [
        0.9961423873901367,
        0.9988842010498047,
        0.998370885848999
      ],
      "min": [
        -0.9955681562423706,
        -0.9992388486862183,
        -0.9958212971687317
      ],
      "type": "VEC3"
    },
    {
      "bufferView": 1,
      "byteOffset": 157344,
      "componentType": 5126,
      "count": 250,
      "max": [
        0.8609511852264404,
        0.9979042410850525
      ],
      "min": [
        0.0020045579876750708,
        -0.0011930465698242188
      ],
      "type": "VEC2"
    },
    {
      "bufferView": 0,
      "byteOffset": 140028,
      "componentType": 5125,
      "count": 1200,
      "type": "SCALAR"
    }
  ],
  "asset": {
    "extras": {
      "author": "samlee.fms (https://sketchfab.com/samlee.fms)",
      "license": "CC-BY-4.0 (http://creativecommons.org/licenses/by/4.0/)",
      "source": "https://sketchfab.com/3d-models/salad-4be5cd6b8d32454a9fb22bca5e430145",
      "title": "Salad"
    },
    "generator": "Sketchfab-14.64.0",
    "version": "2.0"
  },
  "bufferViews": [
    {
      "buffer": 0,
      "byteLength": 144828,
      "name": "floatBufferViews",
      "target": 34963
    },
    {
      "buffer": 0,
      "byteLength": 159344,
      "byteOffset": 144828,
      "byteStride": 8,
      "name": "floatBufferViews",
      "target": 34962
    },
    {
      "buffer": 0,
      "byteLength": 179184,
      "byteOffset": 304172,
      "byteStride": 12,
      "name": "floatBufferViews",
      "target": 34962
    }
  ],
  "buffers": [
    {
      "byteLength": 483356,
      "uri": "scene.bin"
    }
  ],
  "extensionsUsed": [
    "KHR_materials_specular"
  ],
  "images": [
    {
      "uri": "textures/Salad_baseColor.jpeg"
    },
    {
      "uri": "textures/Salad_metallicRoughness.png"
    },
    {
      "uri": "textures/Salad_specularf0.png"
    }
  ],
  "materials": [
    {
      "doubleSided": true,
      "extensions": {
        "KHR_materials_specular": {
          "specularColorFactor": [
            1.0,
            1.0,
            1.0
          ],
          "specularFactor": 1.0,
          "specularTexture": {
            "index": 2
          }
        }
      },
      "name": "Salad",
      "pbrMetallicRoughness": {
        "baseColorTexture": {
          "index": 0
        },
        "metallicFactor": 0.0,
        "metallicRoughnessTexture": {
          "index": 1
        }
      }
    },
    {
      "doubleSided": true,
      "name": "Salad_Plate",
      "pbrMetallicRoughness": {
        "baseColorTexture": {
          "index": 0
        },
        "metallicFactor": 0.0,
        "roughnessFactor": 0.5
      }
    },
    {
      "doubleSided": true,
      "name": "onion",
      "pbrMetallicRoughness": {
        "baseColorTexture": {
          "index": 0
        },
        "metallicFactor": 0.0,
        "roughnessFactor": 0.5
      }
    },
    {
      "doubleSided": true,
      "name": "tomato",
      "pbrMetallicRoughness": {
        "baseColorTexture": {
          "index": 0
        },
        "metallicFactor": 0.0,
        "roughnessFactor": 0.5
      }
    },
    {
      "doubleSided": true,
      "name": "tofu",
      "pbrMetallicRoughness": {
        "baseColorTexture": {
          "index": 0
        },
        "metallicFactor": 0.0,
        "roughnessFactor": 0.5
      }
    },
    {
      "doubleSided": true,
      "name": "bean",
      "pbrMetallicRoughness": {
        "baseColorTexture": {
          "index": 0
        },
        "metallicFactor": 0.0,
        "roughnessFactor": 0.5
      }
    }
  ],
  "meshes": [
    {
      "name": "Object_0",
      "primitives": [
        {
          "attributes": {
            "NORMAL": 1,
            "POSITION": 0,
            "TEXCOORD_0": 2,
            "TEXCOORD_1": 3,
            "TEXCOORD_2": 4
          },
          "indices": 5,
          "material": 0,
          "mode": 4
        }
      ]
    },
    {
      "name": "Object_1",
      "primitives": [
        {
          "attributes": {
            "NORMAL": 7,
            "POSITION": 6,
            "TEXCOORD_0": 8
          },
          "indices": 9,
          "material": 1,
          "mode": 4
        }
      ]
    },
    {
      "name": "Object_2",
      "primitives": [
        {
          "attributes": {
            "NORMAL": 11,
            "POSITION": 10,
            "TEXCOORD_0": 12
          },
          "indices": 13,
          "material": 2,
          "mode": 4
        }
      ]
    },
    {
      "name": "Object_3",
      "primitives": [
        {
          "attributes": {
            "NORMAL": 15,
            "POSITION": 14,
            "TEXCOORD_0": 16
          },
          "indices": 17,
          "material": 3,
          "mode": 4
        }
      ]
    },
    {
      "name": "Object_4",
      "primitives": [
        {
          "attributes": {
            "NORMAL": 19,
            "POSITION": 18,
            "TEXCOORD_0": 20
          },
          "indices": 21,
          "material": 4,
          "mode": 4
        }
      ]
    },
    {
      "name": "Object_5",
      "primitives": [
        {
          "attributes": {
            "NORMAL": 23,
            "POSITION": 22,
            "TEXCOORD_0": 24
          },
          "indices": 25,
          "material": 5,
          "mode": 4
        }
      ]
    }
  ],
  "nodes": [
    {
      "children": [
        1
      ],
      "matrix": [
        1.0,
        0.0,
        0.0,
        0.0,
        0.0,
        2.220446049250313e-16,
        -1.0,
        0.0,
        0.0,
        1.0,
        2.220446049250313e-16,
        0.0,
        0.0,
        0.0,
        0.0,
        1.0
      ],
      "name": "Sketchfab_model"
    },
    {
      "children": [
        2
      ],
      "name": "root"
    },
    {
      "children": [
        3
      ],
      "matrix": [
        1.0,
        0.0,
        0.0,
        0.0,
        0.0,
        2.220446049250313e-16,
        1.0,
        0.0,
        0.0,
        -1.0,
        2.220446049250313e-16,
        0.0,
        0.0,
        0.0,
        0.0,
        1.0
      ],
      "name": "GLTF_SceneRootNode"
    },
    {
      "children": [
        4,
        5,
        6,
        7,
        8,
        9
      ],
      "name": "Salad_0"
    },
    {
      "mesh": 0,
      "name": "Object_4"
    },
    {
      "mesh": 1,
      "name": "Object_5"
    },
    {
      "mesh": 2,
      "name": "Object_6"
    },
    {
      "mesh": 3,
      "name": "Object_7"
    },
    {
      "mesh": 4,
      "name": "Object_8"
    },
    {
      "mesh": 5,
      "name": "Object_9"
    }
  ],
  "samplers": [
    {
      "magFilter": 9729,
      "minFilter": 9987,
      "wrapS": 10497,
      "wrapT": 10497
    }
  ],
  "scene": 0,
  "scenes": [
    {
      "name": "Sketchfab_Scene",
      "nodes": [
        0
      ]
    }
  ],
  "textures": [
    {
      "sampler": 0,
      "source": 0
    },
    {
      "sampler": 0,
      "source": 1
    },
    {
      "sampler": 0,
      "source": 2
    }
  ]
}
