{
  "accessors": [
    {
      "bufferView": 2,
      "componentType": 5126,
      "count": 82,
      "max": [
        1.2891600131988525,
        0.8500249981880188,
        3.7645039558410645
      ],
      "min": [
        -1.3269859552383423,
        -1.7651879787445068,
        1.9053709506988525
      ],
      "type": "VEC3"
    },
    {
      "bufferView": 2,
      "byteOffset": 984,
      "componentType": 5126,
      "count": 82,
      "max": [
        0.9642323851585388,
        0.9640899896621704,
        0.997530996799469
      ],
      "min": [
        -0.963283121585846,
        -0.9627418518066406,
        -0.8220041394233704
      ],
      "type": "VEC3"
    },
    {
      "bufferView": 3,
      "componentType": 5126,
      "count": 82,
      "max": [
        0.9805532693862915,
        0.9651362299919128,
        0.9887564778327942,
        -1.0
      ],
      "min": [
        -0.849923312664032,
        -0.7602835297584534,
        -0.7058221101760864,
        -1.0
      ],
      "type": "VEC4"
    },
    {
      "bufferView": 1,
      "componentType": 5126,
      "count": 82,
      "max": [
        0.9948909878730774,
        0.9825940132141113
      ],
      "min": [
        0.020277999341487885,
        0.031567998230457306
      ],
      "type": "VEC2"
    },
    {
      "bufferView": 0,
      "componentType": 5125,
      "count": 408,
      "type": "SCALAR"
    },
    {
      "bufferView": 2,
      "byteOffset": 1968,
      "componentType": 5126,
      "count": 125,
      "max": [
        2.66874098777771,
        3.5379340648651123,
        2.3491780757904053
      ],
      "min": [
        -2.66874098777771,
        -3.4831581115722656,
        0.31892499327659607
      ],
      "type": "VEC3"
    },
    {
      "bufferView": 2,
      "byteOffset": 3468,
      "componentType": 5126,
      "count": 125,
      "max": [
        0.958308756351471,
        0.9950902462005615,
        0.9999996423721313
      ],
      "min": [
        -0.958308756351471,
        -0.0008549997000955045,
        -0.20185492932796478
      ],
      "type": "VEC3"
    },
    {
      "bufferView": 3,
      "byteOffset": 1312,
      "componentType": 5126,
      "count": 125,
      "max": [
        0.552974283695221,
        0.7411697506904602,
        0.9982618689537048,
        1.0
      ],
      "min": [
        -0.9576841592788696,
        -0.524595320224762,
        -0.994468092918396,
        1.0
      ],
      "type": "VEC4"
    },
    {
      "bufferView": 1,
      "byteOffset": 656,
      "componentType": 5126,
      "count": 125,
      "max": [
        0.9998430013656616,
        0.998956024646759
      ],
      "min": [
        0.00015700000221841037,
        0.00015700000221841037
      ],
      "type": "VEC2"
    },
    {
      "bufferView": 0,
      "byteOffset": 1632,
      "componentType": 5125,
      "count": 558,
      "type": "SCALAR"
    },
    {
      "bufferView": 2,
      "byteOffset": 4968,
      "componentType": 5126,
      "count": 408,
      "max": [
        3.099159002304077,
        3.5273261070251465,
        3.2091310024261475
      ],
      "min": [
        -3.099159002304077,
        -4.638917922973633,
        0.0
      ],
      "type": "VEC3"
    },
    {
      "bufferView": 2,
      "byteOffset": 9864,
      "componentType": 5126,
      "count": 408,
      "max": [
        0.9921444654464722,
        0.9844436645507813,
        0.9956512451171875
      ],
      "min": [
        -0.9921444654464722,
        -0.9983333349227905,
        -1.0
      ],
      "type": "VEC3"
    },
    {
      "bufferView": 3,
      "byteOffset": 3312,
      "componentType": 5126,
      "count": 408,
      "max": [
        0.7125374674797058,
        0.9093075394630432,
        0.999927282333374,
        1.0
      ],
      "min": [
        -0.9999911189079285,
        -0.9052539467811584,
        -0.8144446015357971,
        1.0
      ],
      "type": "VEC4"
    },
    {
      "bufferView": 1,
      "byteOffset": 1656,
      "componentType": 5126,
      "count": 408,
      "max": [
        0.972806990146637,
        0.9882789850234985
      ],
      "min": [
        0.00017699999443721026,
        0.00017699999443721026
      ],
      "type": "VEC2"
    },
    {
      "bufferView": 0,
      "byteOffset": 3864,
      "componentType": 5125,
      "count": 1842,
      "type": "SCALAR"
    }
  ],
  "asset": {
    "extras": {
      "author": "bicho.salem (https://sketchfab.com/bicho.salem)",
      "license": "CC-BY-4.0 (http://creativecommons.org/licenses/by/4.0/)",
      "source": "https://sketchfab.com/3d-models/pumpkin-pie-3december2020-day-8-01cf70b90ab8487d8a822abf13454406",
      "title": "Pumpkin Pie (3December2020 Day 8)"
    },
    "generator": "Sketchfab-12.65.0",
    "version": "2.0"
  },
  "bufferViews": [
    {
      "buffer": 0,
      "byteLength": 11232,
      "name": "floatBufferViews",
      "target": 34963
    },
    {
      "buffer": 0,
      "byteLength": 4920,
      "byteOffset": 11232,
      "byteStride": 8,
      "name": "floatBufferViews",
      "target": 34962
    },
    {
      "buffer": 0,
      "byteLength": 14760,
      "byteOffset": 16152,
      "byteStride": 12,
      "name": "floatBufferViews",
      "target": 34962
    },
    {
      "buffer": 0,
      "byteLength": 9840,
      "byteOffset": 30912,
      "byteStride": 16,
      "name": "floatBufferViews",
      "target": 34962
    }
  ],
  "buffers": [
    {
      "byteLength": 40752,
      "uri": "scene.bin"
    }
  ],
  "images": [
    {
      "uri": "textures/Filling_baseColor.jpeg"
    },
    {
      "uri": "textures/Filling_metallicRoughness.png"
    },
    {
      "uri": "textures/Filling_normal.png"
    },
    {
      "uri": "textures/Crust_baseColor.jpeg"
    },
    {
      "uri": "textures/Crust_metallicRoughness.png"
    },
    {
      "uri": "textures/Crust_normal.png"
    },
    {
      "uri": "textures/Cream_baseColor.jpeg"
    },
    {
      "uri": "textures/Cream_metallicRoughness.png"
    },
    {
      "uri": "textures/Cream_normal.png"
    }
  ],
  "materials": [
    {
      "doubleSided": true,
      "name": "Filling",
      "normalTexture": {
        "index": 2
      },
      "occlusionTexture": {
        "index": 1
      },
      "pbrMetallicRoughness": {
        "baseColorTexture": {
          "index": 0
        },
        "metallicRoughnessTexture": {
          "index": 1
        }
      }
    },
    {
      "doubleSided": true,
      "name": "Crust",
      "normalTexture": {
        "index": 5
      },
      "occlusionTexture": {
        "index": 4
      },
      "pbrMetallicRoughness": {
        "baseColorTexture": {
          "index": 3
        },
        "metallicRoughnessTexture": {
          "index": 4
        }
      }
    },
    {
      "doubleSided": true,
      "name": "Cream",
      "normalTexture": {
        "index": 8
      },
      "occlusionTexture": {
        "index": 7
      },
      "pbrMetallicRoughness": {
        "baseColorTexture": {
          "index": 6
        },
        "metallicRoughnessTexture": {
          "index": 7
        }
      }
    }
  ],
  "meshes": [
    {
      "name": "defaultMaterial",
      "primitives": [
        {
          "attributes": {
            "NORMAL": 1,
            "POSITION": 0,
            "TANGENT": 2,
            "TEXCOORD_0": 3
          },
          "indices": 4,
          "material": 2,
          "mode": 4
        }
      ]
    },
    {
      "name": "defaultMaterial",
      "primitives": [
        {
          "attributes": {
            "NORMAL": 6,
            "POSITION": 5,
            "TANGENT": 7,
            "TEXCOORD_0": 8
          },
          "indices": 9,
          "material": 0,
          "mode": 4
        }
      ]
    },
    {
      "name": "defaultMaterial",
      "primitives": [
        {
          "attributes": {
            "NORMAL": 11,
            "POSITION": 10,
            "TANGENT": 12,
            "TEXCOORD_0": 13
          },
          "indices": 14,
          "material": 1,
          "mode": 4
        }
      ]
    }
  ],
  "nodes": [
    {
      "children": [
        1
      ],
      "matrix": [
        1.0,
        0.0,
        0.0,
        0.0,
        0.0,
        2.220446049250313e-16,
        -1.0,
        0.0,
        0.0,
        1.0,
        2.220446049250313e-16,
        0.0,
        0.0,
        0.0,
        0.0,
        1.0
      ],
      "name": "Sketchfab_model"
    },
    {
      "children": [
        2,
        4
      ],
      "matrix": [
        1.0,
        0.0,
        0.0,
        0.0,
        0.0,
        -4.371139006309477e-08,
        0.999999999999999,
        0.0,
        0.0,
        -0.999999999999999,
        -4.371139006309477e-08,
        0.0,
        0.0,
        0.0,
        0.0,
        1.0
      ],
      "name": "Collada visual scene group"
    },
    {
      "children": [
        3
      ],
      "matrix": [
        100.0,
        0.0,
        0.0,
        0.0,
        0.0,
        -1.6e-05,
        -100.0,
        0.0,
        0.0,
        100.0,
        -1.6e-05,
        0.0,
        0.0,
        0.0,
        0.0,
        1.0
      ],
      "name": "Cream"
    },
    {
      "mesh": 0,
      "name": "defaultMaterial"
    },
    {
      "children": [
        5,
        6
      ],
      "matrix": [
        100.0,
        0.0,
        0.0,
        0.0,
        0.0,
        -1.6e-05,
        -100.0,
        0.0,
        0.0,
        100.0,
        -1.6e-05,
        0.0,
        0.0,
        0.0,
        0.0,
        1.0
      ],
      "name": "Slice"
    },
    {
      "mesh": 1,
      "name": "defaultMaterial"
    },
    {
      "mesh": 2,
      "name": "defaultMaterial"
    }
  ],
  "samplers": [
    {
      "magFilter": 9729,
      "minFilter": 9987,
      "wrapS": 10497,
      "wrapT": 10497
    }
  ],
  "scene": 0,
  "scenes": [
    {
      "name": "Sketchfab_Scene",
      "nodes": [
        0
      ]
    }
  ],
  "textures": [
    {
      "sampler": 0,
      "source": 0
    },
    {
      "sampler": 0,
      "source": 1
    },
    {
      "sampler": 0,
      "source": 2
    },
    {
      "sampler": 0,
      "source": 3
    },
    {
      "sampler": 0,
      "source": 4
    },
    {
      "sampler": 0,
      "source": 5
    },
    {
      "sampler": 0,
      "source": 6
    },
    {
      "sampler": 0,
      "source": 7
    },
    {
      "sampler": 0,
      "source": 8
    }
  ]
}
