{
  "accessors": [
    {
      "bufferView": 2,
      "componentType": 5126,
      "count": 142,
      "max": [
        0.18621599674224854,
        0.4565500020980835,
        1.0624289512634277
      ],
      "min": [
        -0.18621599674224854,
        -0.35056400299072266,
        0.904670000076294
      ],
      "type": "VEC3"
    },
    {
      "bufferView": 2,
      "byteOffset": 1704,
      "componentType": 5126,
      "count": 142,
      "max": [
        0.9008111357688904,
        0.9981186389923096,
        0.9990378618240356
      ],
      "min": [
        -0.9008111357688904,
        -0.9981186389923096,
        -0.9395102262496948
      ],
      "type": "VEC3"
    },
    {
      "bufferView": 3,
      "componentType": 5126,
      "count": 142,
      "max": [
        0.9648469686508179,
        0.9995499849319458,
        0.9189440608024597,
        1.0
      ],
      "min": [
        -0.972186803817749,
        -0.899165153503418,
        -0.937208354473114,
        1.0
      ],
      "type": "VEC4"
    },
    {
      "bufferView": 1,
      "componentType": 5126,
      "count": 142,
      "max": [
        0.9662839770317078,
        0.9910600185394287
      ],
      "min": [
        0.007666000165045261,
        0.01847900077700615
      ],
      "type": "VEC2"
    },
    {
      "bufferView": 0,
      "componentType": 5125,
      "count": 642,
      "type": "SCALAR"
    },
    {
      "bufferView": 2,
      "byteOffset": 3408,
      "componentType": 5126,
      "count": 441,
      "max": [
        0.5505610108375549,
        0.7088159918785095,
        0.9934629797935486
      ],
      "min": [
        -0.5505610108375549,
        -0.8172929883003235,
        0.03974299877882004
      ],
      "type": "VEC3"
    },
    {
      "bufferView": 2,
      "byteOffset": 8700,
      "componentType": 5126,
      "count": 441,
      "max": [
        0.9570703506469727,
        0.9998581409454346,
        0.9999655485153198
      ],
      "min": [
        -0.9570703506469727,
        -0.926297128200531,
        -1.0
      ],
      "type": "VEC3"
    },
    {
      "bufferView": 3,
      "byteOffset": 2272,
      "componentType": 5126,
      "count": 441,
      "max": [
        0.9981553554534912,
        0.9999747276306152,
        0.8693217635154724,
        1.0
      ],
      "min": [
        -0.5488909482955933,
        -1.0,
        -0.9998581409454346,
        1.0
      ],
      "type": "VEC4"
    },
    {
      "bufferView": 1,
      "byteOffset": 1136,
      "componentType": 5126,
      "count": 441,
      "max": [
        0.9921730160713196,
        0.9877380132675171
      ],
      "min": [
        0.02555900067090988,
        0.010281000286340714
      ],
      "type": "VEC2"
    },
    {
      "bufferView": 0,
      "byteOffset": 2568,
      "componentType": 5125,
      "count": 1896,
      "type": "SCALAR"
    },
    {
      "bufferView": 2,
      "byteOffset": 13992,
      "componentType": 5126,
      "count": 328,
      "max": [
        0.5070539712905884,
        0.5693979859352112,
        0.8352770209312439
      ],
      "min": [
        -0.5070539712905884,
        -0.8122159838676453,
        0.03974299877882004
      ],
      "type": "VEC3"
    },
    {
      "bufferView": 2,
      "byteOffset": 17928,
      "componentType": 5126,
      "count": 328,
      "max": [
        0.9344769716262817,
        -0.0,
        0.5469931364059448
      ],
      "min": [
        -0.9344769716262817,
        -0.9976016283035278,
        -1.0
      ],
      "type": "VEC3"
    },
    {
      "bufferView": 3,
      "byteOffset": 9328,
      "componentType": 5126,
      "count": 328,
      "max": [
        0.9993101954460144,
        0.9997695684432983,
        0.2732991576194763,
        1.0
      ],
      "min": [
        -0.3024187386035919,
        -0.9345320463180542,
        -0.7101874351501465,
        1.0
      ],
      "type": "VEC4"
    },
    {
      "bufferView": 1,
      "byteOffset": 4664,
      "componentType": 5126,
      "count": 328,
      "max": [
        0.9879900217056274,
        0.9854080080986023
      ],
      "min": [
        0.020600000396370888,
        0.002828999888151884
      ],
      "type": "VEC2"
    },
    {
      "bufferView": 0,
      "byteOffset": 10152,
      "componentType": 5125,
      "count": 1434,
      "type": "SCALAR"
    },
    {
      "bufferView": 2,
      "byteOffset": 21864,
      "componentType": 5126,
      "count": 98,
      "max": [
        1.0952990055084229,
        0.99965900182724,
        0.08167199790477753
      ],
      "min": [
        -1.0952980518341064,
        -1.1909379959106445,
        0.015443000011146069
      ],
      "type": "VEC3"
    },
    {
      "bufferView": 2,
      "byteOffset": 23040,
      "componentType": 5126,
      "count": 98,
      "max": [
        0.8580309748649597,
        0.8580309748649597,
        1.0
      ],
      "min": [
        -0.8580309748649597,
        -0.8580309748649597,
        -1.0
      ],
      "type": "VEC3"
    },
    {
      "bufferView": 3,
      "byteOffset": 14576,
      "componentType": 5126,
      "count": 98,
      "max": [
        0.7270076274871826,
        0.8683242201805115,
        0.8555023670196533,
        1.0
      ],
      "min": [
        -0.9359070062637329,
        -0.8729746341705322,
        -0.8555122017860413,
        1.0
      ],
      "type": "VEC4"
    },
    {
      "bufferView": 1,
      "byteOffset": 7288,
      "componentType": 5126,
      "count": 98,
      "max": [
        0.9998999834060669,
        0.5051820278167725
      ],
      "min": [
        9.999999747378752e-05,
        9.999999747378752e-05
      ],
      "type": "VEC2"
    },
    {
      "bufferView": 0,
      "byteOffset": 15888,
      "componentType": 5125,
      "count": 480,
      "type": "SCALAR"
    }
  ],
  "asset": {
    "extras": {
      "author": "bicho.salem (https://sketchfab.com/bicho.salem)",
      "license": "CC-BY-4.0 (http://creativecommons.org/licenses/by/4.0/)",
      "source": "https://sketchfab.com/3d-models/carrot-cake-3december-day-12-629e5dada20a4bacbb5ada4b5fe17e08",
      "title": "Carrot Cake (3December Day 12)"
    },
    "generator": "Sketchfab-12.65.0",
    "version": "2.0"
  },
  "bufferViews": [
    {
      "buffer": 0,
      "byteLength": 17808,
      "name": "floatBufferViews",
      "target": 34963
    },
    {
      "buffer": 0,
      "byteLength": 8072,
      "byteOffset": 17808,
      "byteStride": 8,
      "name": "floatBufferViews",
      "target": 34962
    },
    {
      "buffer": 0,
      "byteLength": 24216,
      "byteOffset": 25880,
      "byteStride": 12,
      "name": "floatBufferViews",
      "target": 34962
    },
    {
      "buffer": 0,
      "byteLength": 16144,
      "byteOffset": 50096,
      "byteStride": 16,
      "name": "floatBufferViews",
      "target": 34962
    }
  ],
  "buffers": [
    {
      "byteLength": 66240,
      "uri": "scene.bin"
    }
  ],
  "images": [
    {
      "uri": "textures/Plate_baseColor.jpeg"
    },
    {
      "uri": "textures/Plate_metallicRoughness.png"
    },
    {
      "uri": "textures/Plate_normal.png"
    },
    {
      "uri": "textures/Frosting_baseColor.jpeg"
    },
    {
      "uri": "textures/Frosting_metallicRoughness.png"
    },
    {
      "uri": "textures/Frosting_normal.png"
    },
    {
      "uri": "textures/Cake_baseColor.jpeg"
    },
    {
      "uri": "textures/Cake_metallicRoughness.png"
    },
    {
      "uri": "textures/Cake_normal.png"
    },
    {
      "uri": "textures/Carrot_baseColor.jpeg"
    },
    {
      "uri": "textures/Carrot_metallicRoughness.png"
    },
    {
      "uri": "textures/Carrot_normal.png"
    }
  ],
  "materials": [
    {
      "doubleSided": true,
      "name": "Plate",
      "normalTexture": {
        "index": 2
      },
      "occlusionTexture": {
        "index": 1
      },
      "pbrMetallicRoughness": {
        "baseColorTexture": {
          "index": 0
        },
        "metallicRoughnessTexture": {
          "index": 1
        }
      }
    },
    {
      "doubleSided": true,
      "name": "Frosting",
      "normalTexture": {
        "index": 5
      },
      "pbrMetallicRoughness": {
        "baseColorTexture": {
          "index": 3
        },
        "metallicRoughnessTexture": {
          "index": 4
        }
      }
    },
    {
      "doubleSided": true,
      "name": "Cake",
      "normalTexture": {
        "index": 8
      },
      "occlusionTexture": {
        "index": 7
      },
      "pbrMetallicRoughness": {
        "baseColorTexture": {
          "index": 6
        },
        "metallicRoughnessTexture": {
          "index": 7
        }
      }
    },
    {
      "doubleSided": true,
      "name": "Carrot",
      "normalTexture": {
        "index": 11
      },
      "occlusionTexture": {
        "index": 10
      },
      "pbrMetallicRoughness": {
        "baseColorTexture": {
          "index": 9
        },
        "metallicRoughnessTexture": {
          "index": 10
        }
      }
    }
  ],
  "meshes": [
    {
      "name": "defaultMaterial",
      "primitives": [
        {
          "attributes": {
            "NORMAL": 1,
            "POSITION": 0,
            "TANGENT": 2,
            "TEXCOORD_0": 3
          },
          "indices": 4,
          "material": 3,
          "mode": 4
        }
      ]
    },
    {
      "name": "defaultMaterial",
      "primitives": [
        {
          "attributes": {
            "NORMAL": 6,
            "POSITION": 5,
            "TANGENT": 7,
            "TEXCOORD_0": 8
          },
          "indices": 9,
          "material": 1,
          "mode": 4
        }
      ]
    },
    {
      "name": "defaultMaterial",
      "primitives": [
        {
          "attributes": {
            "NORMAL": 11,
            "POSITION": 10,
            "TANGENT": 12,
            "TEXCOORD_0": 13
          },
          "indices": 14,
          "material": 2,
          "mode": 4
        }
      ]
    },
    {
      "name": "defaultMaterial",
      "primitives": [
        {
          "attributes": {
            "NORMAL": 16,
            "POSITION": 15,
            "TANGENT": 17,
            "TEXCOORD_0": 18
          },
          "indices": 19,
          "material": 0,
          "mode": 4
        }
      ]
    }
  ],
  "nodes": [
    {
      "children": [
        1
      ],
      "matrix": [
        1.0,
        0.0,
        0.0,
        0.0,
        0.0,
        2.220446049250313e-16,
        -1.0,
        0.0,
        0.0,
        1.0,
        2.220446049250313e-16,
        0.0,
        0.0,
        0.0,
        0.0,
        1.0
      ],
      "name": "Sketchfab_model"
    },
    {
      "children": [
        2,
        4,
        7
      ],
      "matrix": [
        1.0,
        0.0,
        0.0,
        0.0,
        0.0,
        -4.371139006309477e-08,
        0.999999999999999,
        0.0,
        0.0,
        -0.999999999999999,
        -4.371139006309477e-08,
        0.0,
        0.0,
        0.0,
        0.0,
        1.0
      ],
      "name": "Collada visual scene group"
    },
    {
      "children": [
        3
      ],
      "matrix": [
        100.0,
        0.0,
        0.0,
        0.0,
        0.0,
        -1.6e-05,
        -100.0,
        0.0,
        0.0,
        100.0,
        -1.6e-05,
        0.0,
        0.0,
        0.0,
        0.0,
        1.0
      ],
      "name": "Carrot"
    },
    {
      "mesh": 0,
      "name": "defaultMaterial"
    },
    {
      "children": [
        5,
        6
      ],
      "matrix": [
        100.0,
        0.0,
        0.0,
        0.0,
        0.0,
        -1.6e-05,
        -100.0,
        0.0,
        0.0,
        100.0,
        -1.6e-05,
        0.0,
        0.0,
        0.0,
        0.0,
        1.0
      ],
      "name": "Slice"
    },
    {
      "mesh": 1,
      "name": "defaultMaterial"
    },
    {
      "mesh": 2,
      "name": "defaultMaterial"
    },
    {
      "children": [
        8
      ],
      "matrix": [
        100.0,
        0.0,
        0.0,
        0.0,
        0.0,
        -1.6e-05,
        -100.0,
        0.0,
        0.0,
        100.0,
        -1.6e-05,
        0.0,
        0.0,
        0.0,
        0.0,
        1.0
      ],
      "name": "Plate"
    },
    {
      "mesh": 3,
      "name": "defaultMaterial"
    }
  ],
  "samplers": [
    {
      "magFilter": 9729,
      "minFilter": 9987,
      "wrapS": 10497,
      "wrapT": 10497
    }
  ],
  "scene": 0,
  "scenes": [
    {
      "name": "Sketchfab_Scene",
      "nodes": [
        0
      ]
    }
  ],
  "textures": [
    {
      "sampler": 0,
      "source": 0
    },
    {
      "sampler": 0,
      "source": 1
    },
    {
      "sampler": 0,
      "source": 2
    },
    {
      "sampler": 0,
      "source": 3
    },
    {
      "sampler": 0,
      "source": 4
    },
    {
      "sampler": 0,
      "source": 5
    },
    {
      "sampler": 0,
      "source": 6
    },
    {
      "sampler": 0,
      "source": 7
    },
    {
      "sampler": 0,
      "source": 8
    },
    {
      "sampler": 0,
      "source": 9
    },
    {
      "sampler": 0,
      "source": 10
    },
    {
      "sampler": 0,
      "source": 11
    }
  ]
}
