{
  "accessors": [
    {
      "bufferView": 2,
      "componentType": 5126,
      "count": 23534,
      "max": [
        0.05846519023180008,
        0.019991079345345497,
        0.0959702655673027
      ],
      "min": [
        -0.14959397912025452,
        -0.03759652376174927,
        -0.1054261103272438
      ],
      "type": "VEC3"
    },
    {
      "bufferView": 2,
      "byteOffset": 282408,
      "componentType": 5126,
      "count": 23534,
      "max": [
        0.9999909400939941,
        0.9999966621398926,
        0.9994006752967834
      ],
      "min": [
        -0.999886691570282,
        -0.9976446032524109,
        -0.999970018863678
      ],
      "type": "VEC3"
    },
    {
      "bufferView": 1,
      "componentType": 5126,
      "count": 23534,
      "max": [
        0.9921917915344238,
        0.9967563152313232
      ],
      "min": [
        6.894590114825405e-06,
        0.014501993544399738
      ],
      "type": "VEC2"
    },
    {
      "bufferView": 1,
      "byteOffset": 188272,
      "componentType": 5126,
      "count": 23534,
      "max": [
        0.9921917915344238,
        0.9967563152313232
      ],
      "min": [
        6.894590114825405e-06,
        0.014501993544399738
      ],
      "type": "VEC2"
    },
    {
      "bufferView": 1,
      "byteOffset": 376544,
      "componentType": 5126,
      "count": 23534,
      "max": [
        0.9921917915344238,
        0.9967563152313232
      ],
      "min": [
        6.894590114825405e-06,
        0.014501993544399738
      ],
      "type": "VEC2"
    },
    {
      "bufferView": 1,
      "byteOffset": 564816,
      "componentType": 5126,
      "count": 23534,
      "max": [
        0.9921917915344238,
        0.9967563152313232
      ],
      "min": [
        6.894590114825405e-06,
        0.014501993544399738
      ],
      "type": "VEC2"
    },
    {
      "bufferView": 1,
      "byteOffset": 753088,
      "componentType": 5126,
      "count": 23534,
      "max": [
        0.9921917915344238,
        0.9967563152313232
      ],
      "min": [
        6.894590114825405e-06,
        0.014501993544399738
      ],
      "type": "VEC2"
    },
    {
      "bufferView": 0,
      "componentType": 5125,
      "count": 110901,
      "type": "SCALAR"
    }
  ],
  "asset": {
    "extras": {
      "author": "alban (https://sketchfab.com/alban)",
      "license": "CC-BY-4.0 (http://creativecommons.org/licenses/by/4.0/)",
      "source": "https://sketchfab.com/3d-models/beet-cheesecake-c1dbb267f8d34ca088ba2e14b4a0b28b",
      "title": "Beet cheesecake"
    },
    "generator": "Sketchfab-13.63.0",
    "version": "2.0"
  },
  "bufferViews": [
    {
      "buffer": 0,
      "byteLength": 443604,
      "name": "floatBufferViews",
      "target": 34963
    },
    {
      "buffer": 0,
      "byteLength": 941360,
      "byteOffset": 443604,
      "byteStride": 8,
      "name": "floatBufferViews",
      "target": 34962
    },
    {
      "buffer": 0,
      "byteLength": 564816,
      "byteOffset": 1384964,
      "byteStride": 12,
      "name": "floatBufferViews",
      "target": 34962
    }
  ],
  "buffers": [
    {
      "byteLength": 1949780,
      "uri": "scene.bin"
    }
  ],
  "extensionsUsed": [
    "KHR_materials_unlit"
  ],
  "images": [
    {
      "uri": "textures/material_0_baseColor.jpeg"
    }
  ],
  "materials": [
    {
      "extensions": {
        "KHR_materials_unlit": {}
      },
      "name": "material_0",
      "pbrMetallicRoughness": {
        "baseColorTexture": {
          "index": 0
        },
        "metallicFactor": 0.0
      }
    }
  ],
  "meshes": [
    {
      "name": "Object_0",
      "primitives": [
        {
          "attributes": {
            "NORMAL": 1,
            "POSITION": 0,
            "TEXCOORD_0": 2,
            "TEXCOORD_1": 3,
            "TEXCOORD_2": 4,
            "TEXCOORD_3": 5,
            "TEXCOORD_4": 6
          },
          "indices": 7,
          "material": 0,
          "mode": 4
        }
      ]
    }
  ],
  "nodes": [
    {
      "children": [
        1
      ],
      "matrix": [
        1.1593624353408813,
        0.0,
        0.0,
        0.0,
        0.0,
        2.5743017392018815e-16,
        -1.1593624353408813,
        0.0,
        0.0,
        1.1593624353408813,
        2.5743017392018815e-16,
        0.0,
        0.0,
        0.0,
        0.0,
        1.0
      ],
      "name": "Sketchfab_model"
    },
    {
      "children": [
        2
      ],
      "name": "root"
    },
    {
      "children": [
        3
      ],
      "matrix": [
        1.0,
        0.0,
        0.0,
        0.0,
        0.0,
        2.220446049250313e-16,
        1.0,
        0.0,
        0.0,
        -1.0,
        2.220446049250313e-16,
        0.0,
        0.0,
        0.0,
        0.0,
        1.0
      ],
      "name": "GLTF_SceneRootNode"
    },
    {
      "children": [
        4
      ],
      "name": "_0"
    },
    {
      "mesh": 0,
      "name": "Object_4"
    }
  ],
  "samplers": [
    {
      "magFilter": 9729,
      "minFilter": 9987,
      "wrapS": 10497,
      "wrapT": 10497
    }
  ],
  "scene": 0,
  "scenes": [
    {
      "name": "Sketchfab_Scene",
      "nodes": [
        0
      ]
    }
  ],
  "textures": [
    {
      "sampler": 0,
      "source": 0
    }
  ]
}
