{
  "accessors": [
    {
      "bufferView": 2,
      "componentType": 5126,
      "count": 124,
      "max": [
        -5.461713790893555,
        11.252776145935059,
        25.662734985351563
      ],
      "min": [
        -6.341579914093018,
        5.9524922370910645,
        1.9999999949504854e-06
      ],
      "type": "VEC3"
    },
    {
      "bufferView": 2,
      "byteOffset": 1488,
      "componentType": 5126,
      "count": 124,
      "max": [
        0.9999973773956299,
        0.9999786019325256,
        1.0
      ],
      "min": [
        -0.9999973773956299,
        -0.999934732913971,
        -1.0
      ],
      "type": "VEC3"
    },
    {
      "bufferView": 3,
      "componentType": 5126,
      "count": 124,
      "max": [
        0.9999994039535522,
        0.9996472597122192,
        0.3155982792377472,
        1.0
      ],
      "min": [
        -0.9999998807907104,
        -0.999994695186615,
        -0.33944711089134216,
        1.0
      ],
      "type": "VEC4"
    },
    {
      "bufferView": 1,
      "componentType": 5126,
      "count": 124,
      "max": [
        0.9876829981803894,
        0.6812589764595032
      ],
      "min": [
        0.5832809805870056,
        0.0039059999398887157
      ],
      "type": "VEC2"
    },
    {
      "bufferView": 0,
      "componentType": 5125,
      "count": 564,
      "type": "SCALAR"
    },
    {
      "bufferView": 2,
      "byteOffset": 2976,
      "componentType": 5126,
      "count": 124,
      "max": [
        6.341579914093018,
        11.252776145935059,
        25.662734985351563
      ],
      "min": [
        5.461713790893555,
        5.952494144439697,
        0.0
      ],
      "type": "VEC3"
    },
    {
      "bufferView": 2,
      "byteOffset": 4464,
      "componentType": 5126,
      "count": 124,
      "max": [
        0.9999973773956299,
        0.9999786019325256,
        1.0
      ],
      "min": [
        -0.9999973773956299,
        -0.999934732913971,
        -1.0
      ],
      "type": "VEC3"
    },
    {
      "bufferView": 3,
      "byteOffset": 1984,
      "componentType": 5126,
      "count": 124,
      "max": [
        0.9999998807907104,
        0.9996472597122192,
        0.31559717655181885,
        -1.0
      ],
      "min": [
        -0.9999994039535522,
        -0.9999947547912598,
        -0.33941519260406494,
        -1.0
      ],
      "type": "VEC4"
    },
    {
      "bufferView": 1,
      "byteOffset": 992,
      "componentType": 5126,
      "count": 124,
      "max": [
        0.9876829981803894,
        0.6812589764595032
      ],
      "min": [
        0.5832809805870056,
        0.0039059999398887157
      ],
      "type": "VEC2"
    },
    {
      "bufferView": 0,
      "byteOffset": 2256,
      "componentType": 5125,
      "count": 564,
      "type": "SCALAR"
    },
    {
      "bufferView": 2,
      "byteOffset": 5952,
      "componentType": 5126,
      "count": 274,
      "max": [
        6.752498149871826,
        6.786736011505127,
        18.358112335205078
      ],
      "min": [
        -6.752498149871826,
        -6.882258892059326,
        16.497472763061523
      ],
      "type": "VEC3"
    },
    {
      "bufferView": 2,
      "byteOffset": 9240,
      "componentType": 5126,
      "count": 274,
      "max": [
        0.9583038687705994,
        0.9591519832611084,
        0.9999988675117493
      ],
      "min": [
        -0.9583038687705994,
        -0.9540948867797852,
        -1.0
      ],
      "type": "VEC3"
    },
    {
      "bufferView": 3,
      "byteOffset": 3968,
      "componentType": 5126,
      "count": 274,
      "max": [
        0.8785337805747986,
        0.8947551250457764,
        0.9587698578834534,
        1.0
      ],
      "min": [
        -0.9999997019767761,
        -0.9307684898376465,
        -0.9584444165229797,
        1.0
      ],
      "type": "VEC4"
    },
    {
      "bufferView": 1,
      "byteOffset": 1984,
      "componentType": 5126,
      "count": 274,
      "max": [
        0.9960939884185791,
        0.9483450055122375
      ],
      "min": [
        0.1878969967365265,
        0.0039059999398887157
      ],
      "type": "VEC2"
    },
    {
      "bufferView": 0,
      "byteOffset": 4512,
      "componentType": 5125,
      "count": 1392,
      "type": "SCALAR"
    },
    {
      "bufferView": 2,
      "byteOffset": 12528,
      "componentType": 5126,
      "count": 79,
      "max": [
        -5.222819805145264,
        -4.345851898193359,
        16.497472763061523
      ],
      "min": [
        -6.102684020996094,
        -7.356937885284424,
        0.0
      ],
      "type": "VEC3"
    },
    {
      "bufferView": 2,
      "byteOffset": 13476,
      "componentType": 5126,
      "count": 79,
      "max": [
        0.9999991059303284,
        0.9999833703041077,
        1.0
      ],
      "min": [
        -0.9999991059303284,
        -0.9999833703041077,
        -1.0
      ],
      "type": "VEC3"
    },
    {
      "bufferView": 3,
      "byteOffset": 8352,
      "componentType": 5126,
      "count": 79,
      "max": [
        0.9999991059303284,
        0.9999979734420776,
        0.24334007501602173,
        1.0
      ],
      "min": [
        -1.0,
        -0.9997962713241577,
        -0.26944854855537415,
        1.0
      ],
      "type": "VEC4"
    },
    {
      "bufferView": 1,
      "byteOffset": 4176,
      "componentType": 5126,
      "count": 79,
      "max": [
        0.9876829981803894,
        0.7837640047073364
      ],
      "min": [
        0.7790160179138184,
        0.3451170027256012
      ],
      "type": "VEC2"
    },
    {
      "bufferView": 0,
      "byteOffset": 10080,
      "componentType": 5125,
      "count": 324,
      "type": "SCALAR"
    },
    {
      "bufferView": 2,
      "byteOffset": 14424,
      "componentType": 5126,
      "count": 36,
      "max": [
        -5.0592241287231445,
        7.280994892120361,
        16.682092666625977
      ],
      "min": [
        -5.939088821411133,
        -5.037115097045898,
        15.802227020263672
      ],
      "type": "VEC3"
    },
    {
      "bufferView": 2,
      "byteOffset": 14856,
      "componentType": 5126,
      "count": 36,
      "max": [
        1.0,
        1.0,
        1.0
      ],
      "min": [
        -1.0,
        -1.0,
        -1.0
      ],
      "type": "VEC3"
    },
    {
      "bufferView": 3,
      "byteOffset": 9616,
      "componentType": 5126,
      "count": 36,
      "max": [
        1.0,
        0.0,
        1.0,
        1.0
      ],
      "min": [
        -1.0,
        0.0,
        -1.0,
        1.0
      ],
      "type": "VEC4"
    },
    {
      "bufferView": 1,
      "byteOffset": 4808,
      "componentType": 5126,
      "count": 36,
      "max": [
        0.9876829981803894,
        0.6646260023117065
      ],
      "min": [
        0.07045599818229675,
        0.35001999139785767
      ],
      "type": "VEC2"
    },
    {
      "bufferView": 0,
      "byteOffset": 11376,
      "componentType": 5125,
      "count": 96,
      "type": "SCALAR"
    },
    {
      "bufferView": 2,
      "byteOffset": 15288,
      "componentType": 5126,
      "count": 50,
      "max": [
        5.4991559982299805,
        -4.670505046844482,
        16.6087703704834
      ],
      "min": [
        -5.4991559982299805,
        -5.403727054595947,
        15.875550270080566
      ],
      "type": "VEC3"
    },
    {
      "bufferView": 2,
      "byteOffset": 15888,
      "componentType": 5126,
      "count": 50,
      "max": [
        1.0,
        0.9238813519477844,
        0.9238818883895874
      ],
      "min": [
        -1.0,
        -0.9238801002502441,
        -0.9238818883895874
      ],
      "type": "VEC3"
    },
    {
      "bufferView": 3,
      "byteOffset": 10192,
      "componentType": 5126,
      "count": 50,
      "max": [
        0.0,
        0.9238888621330261,
        0.9238919019699097,
        1.0
      ],
      "min": [
        0.0,
        -0.9238818287849426,
        -0.9238814115524292,
        1.0
      ],
      "type": "VEC4"
    },
    {
      "bufferView": 1,
      "byteOffset": 5096,
      "componentType": 5126,
      "count": 50,
      "max": [
        0.6788759827613831,
        0.8365539908409119
      ],
      "min": [
        0.0039059999398887157,
        0.0039059999398887157
      ],
      "type": "VEC2"
    },
    {
      "bufferView": 0,
      "byteOffset": 11760,
      "componentType": 5125,
      "count": 96,
      "type": "SCALAR"
    },
    {
      "bufferView": 2,
      "byteOffset": 16488,
      "componentType": 5126,
      "count": 80,
      "max": [
        5.4991559982299805,
        9.997177124023438,
        36.54319381713867
      ],
      "min": [
        -5.4991559982299805,
        5.967222213745117,
        16.422895431518555
      ],
      "type": "VEC3"
    },
    {
      "bufferView": 2,
      "byteOffset": 17448,
      "componentType": 5126,
      "count": 80,
      "max": [
        1.0,
        0.9985677599906921,
        0.9795827865600586
      ],
      "min": [
        -1.0,
        -0.9985677599906921,
        -0.9921812415122986
      ],
      "type": "VEC3"
    },
    {
      "bufferView": 3,
      "byteOffset": 10992,
      "componentType": 5126,
      "count": 80,
      "max": [
        0.000146019970998168,
        0.9922115206718445,
        0.12480723112821579,
        1.0
      ],
      "min": [
        -1.0,
        -0.9921811819076538,
        -0.12467488646507263,
        1.0
      ],
      "type": "VEC4"
    },
    {
      "bufferView": 1,
      "byteOffset": 5496,
      "componentType": 5126,
      "count": 80,
      "max": [
        0.9591259956359863,
        0.869799017906189
      ],
      "min": [
        0.0039059999398887157,
        0.0039059999398887157
      ],
      "type": "VEC2"
    },
    {
      "bufferView": 0,
      "byteOffset": 12144,
      "componentType": 5125,
      "count": 180,
      "type": "SCALAR"
    },
    {
      "bufferView": 2,
      "byteOffset": 18408,
      "componentType": 5126,
      "count": 36,
      "max": [
        5.939088821411133,
        7.280996799468994,
        16.682092666625977
      ],
      "min": [
        5.0592241287231445,
        -5.037114143371582,
        15.802226066589355
      ],
      "type": "VEC3"
    },
    {
      "bufferView": 2,
      "byteOffset": 18840,
      "componentType": 5126,
      "count": 36,
      "max": [
        1.0,
        1.0,
        1.0
      ],
      "min": [
        -1.0,
        -1.0,
        -1.0
      ],
      "type": "VEC3"
    },
    {
      "bufferView": 3,
      "byteOffset": 12272,
      "componentType": 5126,
      "count": 36,
      "max": [
        1.0,
        3.6544313388731098e-06,
        1.0,
        -1.0
      ],
      "min": [
        -1.0,
        -3.6540009205054957e-06,
        -1.0,
        -1.0
      ],
      "type": "VEC4"
    },
    {
      "bufferView": 1,
      "byteOffset": 6136,
      "componentType": 5126,
      "count": 36,
      "max": [
        0.9876829981803894,
        0.6646260023117065
      ],
      "min": [
        0.07045599818229675,
        0.35001999139785767
      ],
      "type": "VEC2"
    },
    {
      "bufferView": 0,
      "byteOffset": 12864,
      "componentType": 5125,
      "count": 96,
      "type": "SCALAR"
    },
    {
      "bufferView": 2,
      "byteOffset": 19272,
      "componentType": 5126,
      "count": 79,
      "max": [
        6.102684020996094,
        -4.345849990844727,
        16.497472763061523
      ],
      "min": [
        5.222819805145264,
        -7.356937885284424,
        1.9999999949504854e-06
      ],
      "type": "VEC3"
    },
    {
      "bufferView": 2,
      "byteOffset": 20220,
      "componentType": 5126,
      "count": 79,
      "max": [
        0.9999991059303284,
        0.9999833703041077,
        1.0
      ],
      "min": [
        -0.9999991059303284,
        -0.9999833703041077,
        -1.0
      ],
      "type": "VEC3"
    },
    {
      "bufferView": 3,
      "byteOffset": 12848,
      "componentType": 5126,
      "count": 79,
      "max": [
        1.0,
        0.9999979734420776,
        0.24334068596363068,
        -1.0
      ],
      "min": [
        -0.9999991059303284,
        -0.9997962713241577,
        -0.26944851875305176,
        -1.0
      ],
      "type": "VEC4"
    },
    {
      "bufferView": 1,
      "byteOffset": 6424,
      "componentType": 5126,
      "count": 79,
      "max": [
        0.9876829981803894,
        0.7837640047073364
      ],
      "min": [
        0.7790160179138184,
        0.3451170027256012
      ],
      "type": "VEC2"
    },
    {
      "bufferView": 0,
      "byteOffset": 13248,
      "componentType": 5125,
      "count": 324,
      "type": "SCALAR"
    }
  ],
  "asset": {
    "extras": {
      "author": "Lemniscata (https://sketchfab.com/Lemniscata)",
      "license": "CC-BY-4.0 (http://creativecommons.org/licenses/by/4.0/)",
      "source": "https://sketchfab.com/3d-models/kitchen-chair-50446f1a01074df2a6d281aba93d00e1",
      "title": "Kitchen Chair"
    },
    "generator": "Sketchfab-16.7.0",
    "version": "2.0"
  },
  "bufferViews": [
    {
      "buffer": 0,
      "byteLength": 14544,
      "name": "floatBufferViews",
      "target": 34963
    },
    {
      "buffer": 0,
      "byteLength": 7056,
      "byteOffset": 14544,
      "byteStride": 8,
      "name": "floatBufferViews",
      "target": 34962
    },
    {
      "buffer": 0,
      "byteLength": 21168,
      "byteOffset": 21600,
      "byteStride": 12,
      "name": "floatBufferViews",
      "target": 34962
    },
    {
      "buffer": 0,
      "byteLength": 14112,
      "byteOffset": 42768,
      "byteStride": 16,
      "name": "floatBufferViews",
      "target": 34962
    }
  ],
  "buffers": [
    {
      "byteLength": 56880,
      "uri": "scene.bin"
    }
  ],
  "images": [
    {
      "uri": "textures/default_baseColor.png"
    },
    {
      "uri": "textures/default_metallicRoughness.png"
    },
    {
      "uri": "textures/default_emissive.jpeg"
    },
    {
      "uri": "textures/default_normal.png"
    }
  ],
  "materials": [
    {
      "alphaMode": "BLEND",
      "doubleSided": true,
      "emissiveFactor": [
        1.0,
        1.0,
        1.0
      ],
      "emissiveTexture": {
        "index": 2
      },
      "name": "default",
      "normalTexture": {
        "index": 3
      },
      "occlusionTexture": {
        "index": 1
      },
      "pbrMetallicRoughness": {
        "baseColorTexture": {
          "index": 0
        },
        "metallicRoughnessTexture": {
          "index": 1
        }
      }
    }
  ],
  "meshes": [
    {
      "name": "defaultMaterial",
      "primitives": [
        {
          "attributes": {
            "NORMAL": 1,
            "POSITION": 0,
            "TANGENT": 2,
            "TEXCOORD_0": 3
          },
          "indices": 4,
          "material": 0,
          "mode": 4
        }
      ]
    },
    {
      "name": "defaultMaterial",
      "primitives": [
        {
          "attributes": {
            "NORMAL": 6,
            "POSITION": 5,
            "TANGENT": 7,
            "TEXCOORD_0": 8
          },
          "indices": 9,
          "material": 0,
          "mode": 4
        }
      ]
    },
    {
      "name": "defaultMaterial",
      "primitives": [
        {
          "attributes": {
            "NORMAL": 11,
            "POSITION": 10,
            "TANGENT": 12,
            "TEXCOORD_0": 13
          },
          "indices": 14,
          "material": 0,
          "mode": 4
        }
      ]
    },
    {
      "name": "defaultMaterial",
      "primitives": [
        {
          "attributes": {
            "NORMAL": 16,
            "POSITION": 15,
            "TANGENT": 17,
            "TEXCOORD_0": 18
          },
          "indices": 19,
          "material": 0,
          "mode": 4
        }
      ]
    },
    {
      "name": "defaultMaterial",
      "primitives": [
        {
          "attributes": {
            "NORMAL": 21,
            "POSITION": 20,
            "TANGENT": 22,
            "TEXCOORD_0": 23
          },
          "indices": 24,
          "material": 0,
          "mode": 4
        }
      ]
    },
    {
      "name": "defaultMaterial",
      "primitives": [
        {
          "attributes": {
            "NORMAL": 26,
            "POSITION": 25,
            "TANGENT": 27,
            "TEXCOORD_0": 28
          },
          "indices": 29,
          "material": 0,
          "mode": 4
        }
      ]
    },
    {
      "name": "defaultMaterial",
      "primitives": [
        {
          "attributes": {
            "NORMAL": 31,
            "POSITION": 30,
            "TANGENT": 32,
            "TEXCOORD_0": 33
          },
          "indices": 34,
          "material": 0,
          "mode": 4
        }
      ]
    },
    {
      "name": "defaultMaterial",
      "primitives": [
        {
          "attributes": {
            "NORMAL": 36,
            "POSITION": 35,
            "TANGENT": 37,
            "TEXCOORD_0": 38
          },
          "indices": 39,
          "material": 0,
          "mode": 4
        }
      ]
    },
    {
      "name": "defaultMaterial",
      "primitives": [
        {
          "attributes": {
            "NORMAL": 41,
            "POSITION": 40,
            "TANGENT": 42,
            "TEXCOORD_0": 43
          },
          "indices": 44,
          "material": 0,
          "mode": 4
        }
      ]
    }
  ],
  "nodes": [
    {
      "children": [
        1
      ],
      "matrix": [
        0.02602456696331501,
        0.0,
        0.0,
        0.0,
        0.0,
        5.778614689714303e-18,
        -0.02602456696331501,
        0.0,
        0.0,
        0.02602456696331501,
        5.778614689714303e-18,
        0.0,
        0.0,
        0.0,
        0.0,
        1.0
      ],
      "name": "Sketchfab_model"
    },
    {
      "children": [
        2,
        4,
        6,
        8,
        10,
        12,
        14,
        16,
        18
      ],
      "matrix": [
        1.0,
        0.0,
        0.0,
        0.0,
        0.0,
        -4.371139006309477e-08,
        0.999999999999999,
        0.0,
        0.0,
        -0.999999999999999,
        -4.371139006309477e-08,
        0.0,
        0.0,
        0.0,
        0.0,
        1.0
      ],
      "name": "Collada visual scene group"
    },
    {
      "children": [
        3
      ],
      "matrix": [
        1.0,
        0.0,
        0.0,
        0.0,
        0.0,
        0.0,
        -1.0,
        0.0,
        0.0,
        1.0,
        0.0,
        0.0,
        0.005776,
        -2e-06,
        0.708013,
        1.0
      ],
      "name": "leg3_low"
    },
    {
      "mesh": 0,
      "name": "defaultMaterial"
    },
    {
      "children": [
        5
      ],
      "matrix": [
        1.0,
        0.0,
        0.0,
        0.0,
        0.0,
        0.0,
        -1.0,
        0.0,
        0.0,
        1.0,
        0.0,
        0.0,
        0.005776,
        -2e-06,
        0.708013,
        1.0
      ],
      "name": "leg4_low"
    },
    {
      "mesh": 1,
      "name": "defaultMaterial"
    },
    {
      "children": [
        7
      ],
      "matrix": [
        1.0,
        0.0,
        0.0,
        0.0,
        0.0,
        0.0,
        -1.0,
        0.0,
        0.0,
        1.0,
        0.0,
        0.0,
        0.005776,
        -2e-06,
        0.708013,
        1.0
      ],
      "name": "seat_low"
    },
    {
      "mesh": 2,
      "name": "defaultMaterial"
    },
    {
      "children": [
        9
      ],
      "matrix": [
        1.0,
        0.0,
        0.0,
        0.0,
        0.0,
        0.0,
        -1.0,
        0.0,
        0.0,
        1.0,
        0.0,
        0.0,
        0.005776,
        -2e-06,
        0.708013,
        1.0
      ],
      "name": "leg1_low"
    },
    {
      "mesh": 3,
      "name": "defaultMaterial"
    },
    {
      "children": [
        11
      ],
      "matrix": [
        1.0,
        0.0,
        0.0,
        0.0,
        0.0,
        0.0,
        -1.0,
        0.0,
        0.0,
        1.0,
        0.0,
        0.0,
        0.005776,
        -2e-06,
        0.708013,
        1.0
      ],
      "name": "frame2_low"
    },
    {
      "mesh": 4,
      "name": "defaultMaterial"
    },
    {
      "children": [
        13
      ],
      "matrix": [
        1.0,
        0.0,
        0.0,
        0.0,
        0.0,
        0.0,
        -1.0,
        0.0,
        0.0,
        1.0,
        0.0,
        0.0,
        0.005776,
        -2e-06,
        0.708013,
        1.0
      ],
      "name": "frame1_low"
    },
    {
      "mesh": 5,
      "name": "defaultMaterial"
    },
    {
      "children": [
        15
      ],
      "matrix": [
        1.0,
        0.0,
        0.0,
        0.0,
        0.0,
        0.0,
        -1.0,
        0.0,
        0.0,
        1.0,
        0.0,
        0.0,
        0.005776,
        -2e-06,
        0.708013,
        1.0
      ],
      "name": "back_low"
    },
    {
      "mesh": 6,
      "name": "defaultMaterial"
    },
    {
      "children": [
        17
      ],
      "matrix": [
        1.0,
        0.0,
        0.0,
        0.0,
        0.0,
        0.0,
        -1.0,
        0.0,
        0.0,
        1.0,
        0.0,
        0.0,
        0.005776,
        -2e-06,
        0.708013,
        1.0
      ],
      "name": "frame3_low"
    },
    {
      "mesh": 7,
      "name": "defaultMaterial"
    },
    {
      "children": [
        19
      ],
      "matrix": [
        1.0,
        0.0,
        0.0,
        0.0,
        0.0,
        0.0,
        -1.0,
        0.0,
        0.0,
        1.0,
        0.0,
        0.0,
        0.005776,
        -2e-06,
        0.708013,
        1.0
      ],
      "name": "leg2_low"
    },
    {
      "mesh": 8,
      "name": "defaultMaterial"
    }
  ],
  "samplers": [
    {
      "magFilter": 9729,
      "minFilter": 9987,
      "wrapS": 10497,
      "wrapT": 10497
    }
  ],
  "scene": 0,
  "scenes": [
    {
      "name": "Sketchfab_Scene",
      "nodes": [
        0
      ]
    }
  ],
  "textures": [
    {
      "sampler": 0,
      "source": 0
    },
    {
      "sampler": 0,
      "source": 1
    },
    {
      "sampler": 0,
      "source": 2
    },
    {
      "sampler": 0,
      "source": 3
    }
  ]
}
